<mxfile host="65bd71144e">
    <diagram id="YrMv4o_78uP7qhT-LwNa" name="1. Arquitetura Completa">
        <mxGraphModel dx="1489" dy="-131" grid="1" gridSize="10" guides="1" tooltips="1" connect="1" arrows="1" fold="1" page="1" pageScale="1" pageWidth="1169" pageHeight="827" math="0" shadow="0">
            <root>
                <mxCell id="0"/>
                <mxCell id="1" parent="0"/>
                <mxCell id="VizGGm-DRqF-7a_3v_KK-1" value="AWS Cloud" style="points=[[0,0],[0.25,0],[0.5,0],[0.75,0],[1,0],[1,0.25],[1,0.5],[1,0.75],[1,1],[0.75,1],[0.5,1],[0.25,1],[0,1],[0,0.75],[0,0.5],[0,0.25]];outlineConnect=0;gradientColor=none;html=1;whiteSpace=wrap;fontSize=12;fontStyle=0;container=1;pointerEvents=0;collapsible=0;recursiveResize=0;shape=mxgraph.aws4.group;grIcon=mxgraph.aws4.group_aws_cloud_alt;strokeColor=#232F3E;fillColor=none;verticalAlign=top;align=left;spacingLeft=30;fontColor=#232F3E;dashed=0;" vertex="1" parent="1">
                    <mxGeometry x="40" y="910" width="1280" height="720" as="geometry"/>
                </mxCell>
                <mxCell id="VizGGm-DRqF-7a_3v_KK-2" value="Amazon Cognito" style="sketch=0;outlineConnect=0;fontColor=#232F3E;gradientColor=none;strokeColor=#ffffff;fillColor=#232F3E;dashed=0;verticalLabelPosition=middle;verticalAlign=bottom;align=center;html=1;whiteSpace=wrap;fontSize=10;fontStyle=1;spacing=3;shape=mxgraph.aws4.productIcon;prIcon=mxgraph.aws4.cognito;" vertex="1" parent="VizGGm-DRqF-7a_3v_KK-1">
                    <mxGeometry x="54" y="40" width="80" height="110" as="geometry"/>
                </mxCell>
                <mxCell id="VizGGm-DRqF-7a_3v_KK-3" value="VPC" style="points=[[0,0],[0.25,0],[0.5,0],[0.75,0],[1,0],[1,0.25],[1,0.5],[1,0.75],[1,1],[0.75,1],[0.5,1],[0.25,1],[0,1],[0,0.75],[0,0.5],[0,0.25]];outlineConnect=0;gradientColor=none;html=1;whiteSpace=wrap;fontSize=12;fontStyle=0;container=1;pointerEvents=0;collapsible=0;recursiveResize=0;shape=mxgraph.aws4.group;grIcon=mxgraph.aws4.group_vpc2;strokeColor=#8C4FFF;fillColor=none;verticalAlign=top;align=left;spacingLeft=30;fontColor=#AAB7B8;dashed=0;" vertex="1" parent="1">
                    <mxGeometry x="240" y="950" width="1040" height="600" as="geometry"/>
                </mxCell>
                <mxCell id="VizGGm-DRqF-7a_3v_KK-4" value="Private subnet" style="points=[[0,0],[0.25,0],[0.5,0],[0.75,0],[1,0],[1,0.25],[1,0.5],[1,0.75],[1,1],[0.75,1],[0.5,1],[0.25,1],[0,1],[0,0.75],[0,0.5],[0,0.25]];outlineConnect=0;gradientColor=none;html=1;whiteSpace=wrap;fontSize=12;fontStyle=0;container=1;pointerEvents=0;collapsible=0;recursiveResize=0;shape=mxgraph.aws4.group;grIcon=mxgraph.aws4.group_security_group;grStroke=0;strokeColor=#00A4A6;fillColor=#E6F6F7;verticalAlign=top;align=left;spacingLeft=30;fontColor=#147EBA;dashed=0;" vertex="1" parent="VizGGm-DRqF-7a_3v_KK-3">
                    <mxGeometry x="161" y="50" width="840" height="510" as="geometry"/>
                </mxCell>
                <mxCell id="VizGGm-DRqF-7a_3v_KK-5" value="" style="sketch=0;outlineConnect=0;fontColor=#232F3E;gradientColor=none;fillColor=#8C4FFF;strokeColor=none;dashed=0;verticalLabelPosition=bottom;verticalAlign=top;align=center;html=1;fontSize=12;fontStyle=0;aspect=fixed;pointerEvents=1;shape=mxgraph.aws4.application_load_balancer;" vertex="1" parent="VizGGm-DRqF-7a_3v_KK-4">
                    <mxGeometry x="110" y="110" width="78" height="78" as="geometry"/>
                </mxCell>
                <mxCell id="VizGGm-DRqF-7a_3v_KK-6" value="Balancer Security Group" style="fontStyle=0;verticalAlign=top;align=center;spacingTop=-2;fillColor=none;rounded=0;whiteSpace=wrap;html=1;strokeColor=#FF0000;strokeWidth=2;dashed=1;container=1;collapsible=0;expand=0;recursiveResize=0;" vertex="1" parent="VizGGm-DRqF-7a_3v_KK-4">
                    <mxGeometry x="49" y="49" width="200" height="200" as="geometry"/>
                </mxCell>
                <mxCell id="VizGGm-DRqF-7a_3v_KK-7" value="Application Load Balancer" style="text;html=1;align=center;verticalAlign=middle;whiteSpace=wrap;rounded=0;" vertex="1" parent="VizGGm-DRqF-7a_3v_KK-6">
                    <mxGeometry x="27.5" y="149" width="145" height="30" as="geometry"/>
                </mxCell>
                <mxCell id="VizGGm-DRqF-7a_3v_KK-8" style="edgeStyle=orthogonalEdgeStyle;rounded=0;orthogonalLoop=1;jettySize=auto;html=1;" edge="1" parent="VizGGm-DRqF-7a_3v_KK-6" target="VizGGm-DRqF-7a_3v_KK-11">
                    <mxGeometry relative="1" as="geometry">
                        <mxPoint x="139" y="99.5" as="sourcePoint"/>
                        <mxPoint x="341" y="99.5" as="targetPoint"/>
                    </mxGeometry>
                </mxCell>
                <mxCell id="VizGGm-DRqF-7a_3v_KK-9" value="Target Group: 80 -&amp;gt; 8080" style="edgeLabel;html=1;align=center;verticalAlign=middle;resizable=0;points=[];" vertex="1" connectable="0" parent="VizGGm-DRqF-7a_3v_KK-8">
                    <mxGeometry x="-0.1654" y="3" relative="1" as="geometry">
                        <mxPoint as="offset"/>
                    </mxGeometry>
                </mxCell>
                <mxCell id="VizGGm-DRqF-7a_3v_KK-10" value="Cluster Security Group" style="fontStyle=0;verticalAlign=top;align=center;spacingTop=-2;fillColor=none;rounded=0;whiteSpace=wrap;html=1;strokeColor=#FF0000;strokeWidth=2;dashed=1;container=1;collapsible=0;expand=0;recursiveResize=0;" vertex="1" parent="VizGGm-DRqF-7a_3v_KK-4">
                    <mxGeometry x="280" y="49" width="280" height="461" as="geometry"/>
                </mxCell>
                <mxCell id="VizGGm-DRqF-7a_3v_KK-11" value="EC2 instance contents" style="points=[[0,0],[0.25,0],[0.5,0],[0.75,0],[1,0],[1,0.25],[1,0.5],[1,0.75],[1,1],[0.75,1],[0.5,1],[0.25,1],[0,1],[0,0.75],[0,0.5],[0,0.25]];outlineConnect=0;gradientColor=none;html=1;whiteSpace=wrap;fontSize=12;fontStyle=0;container=1;pointerEvents=0;collapsible=0;recursiveResize=0;shape=mxgraph.aws4.group;grIcon=mxgraph.aws4.group_ec2_instance_contents;strokeColor=#D86613;fillColor=none;verticalAlign=top;align=left;spacingLeft=30;fontColor=#D86613;dashed=0;" vertex="1" parent="VizGGm-DRqF-7a_3v_KK-10">
                    <mxGeometry x="50" y="34" width="180" height="406" as="geometry"/>
                </mxCell>
                <mxCell id="VizGGm-DRqF-7a_3v_KK-12" value="" style="sketch=0;points=[[0,0,0],[0.25,0,0],[0.5,0,0],[0.75,0,0],[1,0,0],[0,1,0],[0.25,1,0],[0.5,1,0],[0.75,1,0],[1,1,0],[0,0.25,0],[0,0.5,0],[0,0.75,0],[1,0.25,0],[1,0.5,0],[1,0.75,0]];outlineConnect=0;fontColor=#232F3E;fillColor=#ED7100;strokeColor=#ffffff;dashed=0;verticalLabelPosition=bottom;verticalAlign=top;align=center;html=1;fontSize=12;fontStyle=0;aspect=fixed;shape=mxgraph.aws4.resourceIcon;resIcon=mxgraph.aws4.ec2;" vertex="1" parent="VizGGm-DRqF-7a_3v_KK-11">
                    <mxGeometry x="51" y="46" width="78" height="78" as="geometry"/>
                </mxCell>
                <mxCell id="VizGGm-DRqF-7a_3v_KK-13" value="Video-api" style="text;html=1;align=center;verticalAlign=middle;whiteSpace=wrap;rounded=0;" vertex="1" parent="VizGGm-DRqF-7a_3v_KK-11">
                    <mxGeometry x="25" y="126" width="130" height="30" as="geometry"/>
                </mxCell>
                <mxCell id="VizGGm-DRqF-7a_3v_KK-14" value="" style="sketch=0;points=[[0,0,0],[0.25,0,0],[0.5,0,0],[0.75,0,0],[1,0,0],[0,1,0],[0.25,1,0],[0.5,1,0],[0.75,1,0],[1,1,0],[0,0.25,0],[0,0.5,0],[0,0.75,0],[1,0.25,0],[1,0.5,0],[1,0.75,0]];outlineConnect=0;fontColor=#232F3E;fillColor=#ED7100;strokeColor=#ffffff;dashed=0;verticalLabelPosition=bottom;verticalAlign=top;align=center;html=1;fontSize=12;fontStyle=0;aspect=fixed;shape=mxgraph.aws4.resourceIcon;resIcon=mxgraph.aws4.ec2;" vertex="1" parent="VizGGm-DRqF-7a_3v_KK-11">
                    <mxGeometry x="51" y="156" width="78" height="78" as="geometry"/>
                </mxCell>
                <mxCell id="VizGGm-DRqF-7a_3v_KK-15" value="Core-api" style="text;html=1;align=center;verticalAlign=middle;whiteSpace=wrap;rounded=0;" vertex="1" parent="VizGGm-DRqF-7a_3v_KK-11">
                    <mxGeometry x="25" y="236" width="130" height="30" as="geometry"/>
                </mxCell>
                <mxCell id="VizGGm-DRqF-7a_3v_KK-16" value="" style="sketch=0;points=[[0,0,0],[0.25,0,0],[0.5,0,0],[0.75,0,0],[1,0,0],[0,1,0],[0.25,1,0],[0.5,1,0],[0.75,1,0],[1,1,0],[0,0.25,0],[0,0.5,0],[0,0.75,0],[1,0.25,0],[1,0.5,0],[1,0.75,0]];outlineConnect=0;fontColor=#232F3E;fillColor=#ED7100;strokeColor=#ffffff;dashed=0;verticalLabelPosition=bottom;verticalAlign=top;align=center;html=1;fontSize=12;fontStyle=0;aspect=fixed;shape=mxgraph.aws4.resourceIcon;resIcon=mxgraph.aws4.ec2;" vertex="1" parent="VizGGm-DRqF-7a_3v_KK-11">
                    <mxGeometry x="51" y="266" width="78" height="78" as="geometry"/>
                </mxCell>
                <mxCell id="VizGGm-DRqF-7a_3v_KK-17" value="Processor" style="text;html=1;align=center;verticalAlign=middle;whiteSpace=wrap;rounded=0;" vertex="1" parent="VizGGm-DRqF-7a_3v_KK-11">
                    <mxGeometry x="25" y="346" width="130" height="30" as="geometry"/>
                </mxCell>
                <mxCell id="VizGGm-DRqF-7a_3v_KK-18" value="Rds Security Group" style="fontStyle=0;verticalAlign=top;align=center;spacingTop=-2;fillColor=none;rounded=0;whiteSpace=wrap;html=1;strokeColor=#FF0000;strokeWidth=2;dashed=1;container=1;collapsible=0;expand=0;recursiveResize=0;" vertex="1" parent="VizGGm-DRqF-7a_3v_KK-4">
                    <mxGeometry x="600" y="49" width="200" height="461" as="geometry"/>
                </mxCell>
                <mxCell id="VizGGm-DRqF-7a_3v_KK-19" value="" style="sketch=0;outlineConnect=0;fontColor=#232F3E;gradientColor=none;fillColor=#C925D1;strokeColor=none;dashed=0;verticalLabelPosition=bottom;verticalAlign=top;align=center;html=1;fontSize=12;fontStyle=0;aspect=fixed;pointerEvents=1;shape=mxgraph.aws4.rds_instance;" vertex="1" parent="VizGGm-DRqF-7a_3v_KK-18">
                    <mxGeometry x="60" y="45" width="78" height="78" as="geometry"/>
                </mxCell>
                <mxCell id="VizGGm-DRqF-7a_3v_KK-20" value="Rds postgres" style="text;html=1;align=center;verticalAlign=middle;whiteSpace=wrap;rounded=0;" vertex="1" parent="VizGGm-DRqF-7a_3v_KK-18">
                    <mxGeometry x="60" y="139" width="80" height="30" as="geometry"/>
                </mxCell>
                <mxCell id="VizGGm-DRqF-7a_3v_KK-21" value="" style="endArrow=classic;html=1;rounded=0;exitX=1;exitY=0.25;exitDx=0;exitDy=0;entryX=0;entryY=0.25;entryDx=0;entryDy=0;" edge="1" parent="VizGGm-DRqF-7a_3v_KK-4" source="VizGGm-DRqF-7a_3v_KK-11" target="VizGGm-DRqF-7a_3v_KK-18">
                    <mxGeometry width="50" height="50" relative="1" as="geometry">
                        <mxPoint x="180" y="250" as="sourcePoint"/>
                        <mxPoint x="230" y="200" as="targetPoint"/>
                    </mxGeometry>
                </mxCell>
                <mxCell id="VizGGm-DRqF-7a_3v_KK-22" value="Port:5432" style="edgeLabel;html=1;align=center;verticalAlign=middle;resizable=0;points=[];" vertex="1" connectable="0" parent="VizGGm-DRqF-7a_3v_KK-21">
                    <mxGeometry x="-0.0679" y="1" relative="1" as="geometry">
                        <mxPoint as="offset"/>
                    </mxGeometry>
                </mxCell>
                <mxCell id="VizGGm-DRqF-7a_3v_KK-23" value="&lt;span style=&quot;font-size: 20px;&quot;&gt;Fase 5&lt;/span&gt;" style="text;html=1;align=center;verticalAlign=middle;resizable=0;points=[];autosize=1;strokeColor=none;fillColor=none;" vertex="1" parent="1">
                    <mxGeometry x="40" y="870" width="80" height="40" as="geometry"/>
                </mxCell>
            </root>
        </mxGraphModel>
    </diagram>
    <diagram id="FluxoProcessamento" name="2. Fluxo de Processamento">
        <mxGraphModel dx="925" dy="390" grid="1" gridSize="10" guides="1" tooltips="1" connect="1" arrows="1" fold="1" page="1" pageScale="1" pageWidth="1169" pageHeight="827" math="0" shadow="0">
            <root>
                <mxCell id="200"/>
                <mxCell id="201" parent="200"/>
                <mxCell id="202" value="Fluxo de Processamento de Vídeos" style="text;html=1;strokeColor=none;fillColor=none;align=center;verticalAlign=middle;whiteSpace=wrap;rounded=0;fontSize=20;fontStyle=1;" parent="201" vertex="1">
                    <mxGeometry x="334.5" y="20" width="500" height="30" as="geometry"/>
                </mxCell>
                <mxCell id="203" value="1. Usuário&lt;br&gt;Requisição" style="rounded=1;whiteSpace=wrap;html=1;fillColor=#fff2cc;strokeColor=#d6b656;strokeWidth=2;fontSize=12;fontStyle=1;" parent="201" vertex="1">
                    <mxGeometry x="80" y="80" width="100" height="60" as="geometry"/>
                </mxCell>
                <mxCell id="204" value="video-api&lt;br&gt;(Orquestrador)" style="rounded=1;whiteSpace=wrap;html=1;fillColor=#dae8fc;strokeColor=#6c8ebf;strokeWidth=2;fontSize=12;fontStyle=1;" parent="201" vertex="1">
                    <mxGeometry x="250" y="80" width="120" height="60" as="geometry"/>
                </mxCell>
                <mxCell id="205" value="core-api&lt;br&gt;(Interface BD)" style="rounded=1;whiteSpace=wrap;html=1;fillColor=#d5e8d4;strokeColor=#82b366;strokeWidth=2;fontSize=12;fontStyle=1;" parent="201" vertex="1">
                    <mxGeometry x="450" y="80" width="120" height="60" as="geometry"/>
                </mxCell>
                <mxCell id="206" value="PostgreSQL&lt;br&gt;Database" style="rounded=1;whiteSpace=wrap;html=1;fillColor=#e1d5e7;strokeColor=#9673a6;strokeWidth=2;fontSize=12;fontStyle=1;" parent="201" vertex="1">
                    <mxGeometry x="650" y="80" width="120" height="60" as="geometry"/>
                </mxCell>
                <mxCell id="207" value="S3&lt;br&gt;user-video-uploads&lt;br&gt;(Salvar video.mp4)" style="rounded=1;whiteSpace=wrap;html=1;fillColor=#f8cecc;strokeColor=#b85450;strokeWidth=2;fontSize=12;fontStyle=1;" parent="201" vertex="1">
                    <mxGeometry x="20" y="150" width="150" height="80" as="geometry"/>
                </mxCell>
                <mxCell id="208" value="SQS&lt;br&gt;video-processing-queue&lt;br&gt;(Publicar mensagem)" style="rounded=1;whiteSpace=wrap;html=1;fillColor=#ffe6cc;strokeColor=#d79b00;strokeWidth=2;fontSize=12;fontStyle=1;" parent="201" vertex="1">
                    <mxGeometry x="160" y="240" width="150" height="80" as="geometry"/>
                </mxCell>
                <mxCell id="209" value="processor&lt;br&gt;(Recebe mensagem)" style="rounded=1;whiteSpace=wrap;html=1;fillColor=#ffd966;strokeColor=#d6b656;strokeWidth=2;fontSize=12;fontStyle=1;" parent="201" vertex="1">
                    <mxGeometry x="450" y="200" width="120" height="60" as="geometry"/>
                </mxCell>
                <mxCell id="213" value="S3&lt;br&gt;processed-videos&lt;br&gt;(Salvar ZIP)" style="rounded=1;whiteSpace=wrap;html=1;fillColor=#f8cecc;strokeColor=#b85450;strokeWidth=2;fontSize=12;fontStyle=1;" parent="201" vertex="1">
                    <mxGeometry x="380" y="330" width="140" height="80" as="geometry"/>
                </mxCell>
                <mxCell id="214" value="Email Service&lt;br&gt;(Notificação em caso&lt;br&gt;de erro)" style="rounded=1;whiteSpace=wrap;html=1;fillColor=#ffe6cc;strokeColor=#d79b00;strokeWidth=2;fontSize=11;fontStyle=1;" parent="201" vertex="1">
                    <mxGeometry x="545.5" y="330" width="140" height="80" as="geometry"/>
                </mxCell>
                <mxCell id="215" value="" style="endArrow=classic;html=1;rounded=0;strokeWidth=2;strokeColor=#1971c2;" parent="201" source="203" target="204" edge="1">
                    <mxGeometry width="50" height="50" relative="1" as="geometry">
                        <mxPoint x="400" y="350" as="sourcePoint"/>
                        <mxPoint x="450" y="300" as="targetPoint"/>
                    </mxGeometry>
                </mxCell>
                <mxCell id="216" value="1" style="edgeLabel;html=1;align=center;verticalAlign=middle;resizable=0;points=[];fontSize=12;fontColor=#1971c2;fontStyle=1;backgroundColor=#ffffff;" parent="215" vertex="1" connectable="0">
                    <mxGeometry x="-0.1" y="-1" relative="1" as="geometry">
                        <mxPoint as="offset"/>
                    </mxGeometry>
                </mxCell>
                <mxCell id="217" value="" style="endArrow=classic;html=1;rounded=0;strokeWidth=2;strokeColor=#1971c2;" parent="201" source="204" target="205" edge="1">
                    <mxGeometry width="50" height="50" relative="1" as="geometry">
                        <mxPoint x="400" y="350" as="sourcePoint"/>
                        <mxPoint x="450" y="300" as="targetPoint"/>
                    </mxGeometry>
                </mxCell>
                <mxCell id="218" value="2" style="edgeLabel;html=1;align=center;verticalAlign=middle;resizable=0;points=[];fontSize=12;fontColor=#1971c2;fontStyle=1;backgroundColor=#ffffff;" parent="217" vertex="1" connectable="0">
                    <mxGeometry x="-0.1" y="-1" relative="1" as="geometry">
                        <mxPoint as="offset"/>
                    </mxGeometry>
                </mxCell>
                <mxCell id="219" value="" style="endArrow=classic;html=1;rounded=0;strokeWidth=2;strokeColor=#1971c2;" parent="201" source="205" target="206" edge="1">
                    <mxGeometry width="50" height="50" relative="1" as="geometry">
                        <mxPoint x="400" y="350" as="sourcePoint"/>
                        <mxPoint x="450" y="300" as="targetPoint"/>
                    </mxGeometry>
                </mxCell>
                <mxCell id="220" value="3" style="edgeLabel;html=1;align=center;verticalAlign=middle;resizable=0;points=[];fontSize=12;fontColor=#1971c2;fontStyle=1;backgroundColor=#ffffff;" parent="219" vertex="1" connectable="0">
                    <mxGeometry x="-0.1" y="-1" relative="1" as="geometry">
                        <mxPoint as="offset"/>
                    </mxGeometry>
                </mxCell>
                <mxCell id="221" value="" style="endArrow=classic;html=1;rounded=0;strokeWidth=2;strokeColor=#1971c2;" parent="201" source="204" target="207" edge="1">
                    <mxGeometry width="50" height="50" relative="1" as="geometry">
                        <mxPoint x="400" y="350" as="sourcePoint"/>
                        <mxPoint x="450" y="300" as="targetPoint"/>
                    </mxGeometry>
                </mxCell>
                <mxCell id="222" value="4" style="edgeLabel;html=1;align=center;verticalAlign=middle;resizable=0;points=[];fontSize=12;fontColor=#1971c2;fontStyle=1;backgroundColor=#ffffff;" parent="221" vertex="1" connectable="0">
                    <mxGeometry x="-0.1" y="-1" relative="1" as="geometry">
                        <mxPoint as="offset"/>
                    </mxGeometry>
                </mxCell>
                <mxCell id="225" value="" style="endArrow=classic;html=1;rounded=0;strokeWidth=2;strokeColor=#1971c2;" parent="201" source="208" target="209" edge="1">
                    <mxGeometry width="50" height="50" relative="1" as="geometry">
                        <mxPoint x="400" y="350" as="sourcePoint"/>
                        <mxPoint x="450" y="300" as="targetPoint"/>
                    </mxGeometry>
                </mxCell>
                <mxCell id="226" value="6" style="edgeLabel;html=1;align=center;verticalAlign=middle;resizable=0;points=[];fontSize=12;fontColor=#1971c2;fontStyle=1;backgroundColor=#ffffff;" parent="225" vertex="1" connectable="0">
                    <mxGeometry x="-0.1" y="-1" relative="1" as="geometry">
                        <mxPoint as="offset"/>
                    </mxGeometry>
                </mxCell>
                <mxCell id="227" value="" style="endArrow=classic;html=1;rounded=0;strokeWidth=2;strokeColor=#1971c2;exitX=0.25;exitY=0;exitDx=0;exitDy=0;entryX=0.25;entryY=1;entryDx=0;entryDy=0;" parent="201" source="209" target="205" edge="1">
                    <mxGeometry width="50" height="50" relative="1" as="geometry">
                        <mxPoint x="400" y="350" as="sourcePoint"/>
                        <mxPoint x="650" y="240" as="targetPoint"/>
                    </mxGeometry>
                </mxCell>
                <mxCell id="230" value="" style="endArrow=classic;html=1;rounded=0;strokeWidth=2;strokeColor=#228B22;exitX=0;exitY=1;exitDx=0;exitDy=0;" parent="201" source="209" target="213" edge="1">
                    <mxGeometry width="50" height="50" relative="1" as="geometry">
                        <mxPoint x="556.6666666666665" y="400" as="sourcePoint"/>
                        <mxPoint x="450" y="300" as="targetPoint"/>
                    </mxGeometry>
                </mxCell>
                <mxCell id="231" value="Se SUCESSO" style="edgeLabel;html=1;align=center;verticalAlign=middle;resizable=0;points=[];fontSize=10;fontColor=#228B22;fontStyle=1;backgroundColor=#ffffff;" parent="230" vertex="1" connectable="0">
                    <mxGeometry x="-0.1" y="-1" relative="1" as="geometry">
                        <mxPoint as="offset"/>
                    </mxGeometry>
                </mxCell>
                <mxCell id="232" value="" style="endArrow=classic;html=1;rounded=0;strokeWidth=2;strokeColor=#DC143C;exitX=0.878;exitY=1.023;exitDx=0;exitDy=0;exitPerimeter=0;" parent="201" source="209" target="214" edge="1">
                    <mxGeometry width="50" height="50" relative="1" as="geometry">
                        <mxPoint x="320" y="380" as="sourcePoint"/>
                        <mxPoint x="450" y="300" as="targetPoint"/>
                        <Array as="points"/>
                    </mxGeometry>
                </mxCell>
                <mxCell id="233" value="Se ERRO" style="edgeLabel;html=1;align=center;verticalAlign=middle;resizable=0;points=[];fontSize=10;fontColor=#DC143C;fontStyle=1;backgroundColor=#ffffff;" parent="232" vertex="1" connectable="0">
                    <mxGeometry x="-0.1" y="-1" relative="1" as="geometry">
                        <mxPoint as="offset"/>
                    </mxGeometry>
                </mxCell>
                <mxCell id="234" value="&lt;div&gt;&lt;b&gt;&lt;br&gt;&lt;/b&gt;&lt;/div&gt;&lt;b&gt;&lt;div&gt;&lt;b&gt;&lt;br&gt;&lt;/b&gt;&lt;/div&gt;SEQUÊNCIA DO FLUXO:&lt;/b&gt;&lt;br&gt;&lt;br&gt;1. Usuário faz requisição para video-api&lt;br&gt;2. video-api chama core-api&lt;br&gt;3. core-api persiste dados no PostgreSQL&lt;br&gt;4. video-api salva video.mp4 no S3 user-video-uploads&lt;br&gt;5. video-api publica mensagem na fila SQS&lt;br&gt;6. processor recebe mensagem e atualiza status para PROCESSANDO&lt;br&gt;7. processor baixa vídeo, extrai frames e cria ZIP&lt;br&gt;8. processor atualiza status final (SUCESSO/ERRO)&lt;br&gt;9. Se SUCESSO: salva ZIP no S3 processed-videos&lt;br&gt;10. Se ERRO: envia email de notificação ao usuário" style="rounded=1;whiteSpace=wrap;html=1;fillColor=#f8f9fa;strokeColor=#666666;strokeWidth=1;fontSize=11;align=left;verticalAlign=top;movable=1;resizable=1;rotatable=1;deletable=1;editable=1;locked=0;connectable=1;" parent="201" vertex="1">
                    <mxGeometry x="30" y="560" width="790" height="210" as="geometry"/>
                </mxCell>
                <mxCell id="nFKMTqXMobUsInkQ9-o8-238" value="" style="endArrow=classic;html=1;rounded=0;strokeWidth=2;strokeColor=#1971c2;entryX=0.5;entryY=0;entryDx=0;entryDy=0;exitX=0.5;exitY=1;exitDx=0;exitDy=0;" edge="1" parent="201" source="204" target="208">
                    <mxGeometry width="50" height="50" relative="1" as="geometry">
                        <mxPoint x="278" y="150" as="sourcePoint"/>
                        <mxPoint x="195" y="210" as="targetPoint"/>
                    </mxGeometry>
                </mxCell>
                <mxCell id="nFKMTqXMobUsInkQ9-o8-239" value="5" style="edgeLabel;html=1;align=center;verticalAlign=middle;resizable=0;points=[];fontSize=12;fontColor=#1971c2;fontStyle=1;backgroundColor=#ffffff;" vertex="1" connectable="0" parent="nFKMTqXMobUsInkQ9-o8-238">
                    <mxGeometry x="-0.1" y="-1" relative="1" as="geometry">
                        <mxPoint as="offset"/>
                    </mxGeometry>
                </mxCell>
                <mxCell id="nFKMTqXMobUsInkQ9-o8-240" value="" style="endArrow=classic;html=1;rounded=0;strokeWidth=2;strokeColor=#1971c2;exitX=0.75;exitY=1;exitDx=0;exitDy=0;entryX=0.25;entryY=0;entryDx=0;entryDy=0;" edge="1" parent="201" source="204" target="213">
                    <mxGeometry width="50" height="50" relative="1" as="geometry">
                        <mxPoint x="345" y="240" as="sourcePoint"/>
                        <mxPoint x="460" y="240" as="targetPoint"/>
                    </mxGeometry>
                </mxCell>
                <mxCell id="nFKMTqXMobUsInkQ9-o8-241" value="7" style="edgeLabel;html=1;align=center;verticalAlign=middle;resizable=0;points=[];fontSize=12;fontColor=#1971c2;fontStyle=1;backgroundColor=#ffffff;" vertex="1" connectable="0" parent="nFKMTqXMobUsInkQ9-o8-240">
                    <mxGeometry x="-0.1" y="-1" relative="1" as="geometry">
                        <mxPoint x="-34" y="-52" as="offset"/>
                    </mxGeometry>
                </mxCell>
            </root>
        </mxGraphModel>
    </diagram>
</mxfile>